<svg width="22" height="22" viewBox="0 0 22 22" xmlns="http://www.w3.org/2000/svg"><path fill="#c6d4df" d="M 19.136719 11.933594 L 6.148438 19.785156 C 5.976562 19.890625 5.777344 19.925781 5.582031 19.890625 C 5.386719 19.855469 5.210938 19.75 5.085938 19.589844 C 4.957031 19.433594 4.890625 19.234375 4.890625 19.027344 L 4.890625 3.324219 C 4.890625 3.117188 4.957031 2.917969 5.085938 2.757812 C 5.210938 2.601562 5.386719 2.492188 5.582031 2.457031 C 5.777344 2.421875 5.976562 2.457031 6.148438 2.5625 L 19.136719 10.414062 C 19.308594 10.515625 19.4375 10.679688 19.503906 10.875 C 19.574219 11.066406 19.574219 11.28125 19.503906 11.476562 C 19.4375 11.667969 19.308594 11.832031 19.136719 11.933594 Z M 19.136719 11.933594"/></svg>